<svg xmlns="http://www.w3.org/2000/svg" version="1.1" xmlns:xlink="http://www.w3.org/1999/xlink" width="512" height="512"><svg id="SvgjsSvg1001" data-name="Layer 1" xmlns="http://www.w3.org/2000/svg" viewBox="0 0 512 512"><defs><style>.cls-1{fill:#141f38;}</style></defs><title>map-outline</title><path class="cls-1" d="M512,439.17,485.71,163.48a6.56,6.56,0,0,0-8.84-5.53L374,196.52l-26-8.68c9.41-20.44,15.66-39.46,15.66-53.93a107.65,107.65,0,1,0-215.3,0c0,14.47,6.25,33.49,15.66,53.93l-26,8.68L35.13,158a6.57,6.57,0,0,0-8.84,5.53L0,439.17A6.57,6.57,0,0,0,4.49,446l118.15,39.38a6.64,6.64,0,0,0,.85.21l.16,0a6.1,6.1,0,0,0,2.51-.09c.15,0,.3-.05.44-.1L256,446.65l129.4,38.82c.18.05.36.08.54.12a6.07,6.07,0,0,0,2.42.06l.07,0a6.69,6.69,0,0,0,.93-.23L507.51,446A6.56,6.56,0,0,0,512,439.17ZM161.48,133.91a94.52,94.52,0,1,1,189,0c0,13-6,30.61-14.94,49.8-1.83,3.91-3.79,7.88-5.85,11.89-20.35,39.69-50.64,83.29-67.16,106.11-2.54,3.52-4.76,6.54-6.57,9-1.8-2.43-4-5.45-6.56-9-16.51-22.81-46.82-66.43-67.18-106.13q-3.09-6-5.84-11.89C167.43,164.52,161.48,146.92,161.48,133.91ZM38.54,173.26,131.06,208l-3.34,70.25-9.14,192-105-35Zm102.58,99.42,3.07-64.39,25.58-8.53c27,53.67,71.08,112.75,79.67,124.1V434.91L131.72,470.23Zm121.45,51.17c8.61-11.37,52.63-70.44,79.66-124.09l25.58,8.53,2.26,47.37,10.22,214.57L262.57,434.91ZM393.43,470.21,382.27,236l-1.33-28,92.52-34.7,24.95,262Z"></path><path class="cls-1" d="M256,183.79a45.95,45.95,0,1,0-45.95-45.95A46,46,0,0,0,256,183.79ZM256,105a32.82,32.82,0,1,1-32.82,32.82A32.86,32.86,0,0,1,256,105Z"></path></svg><style>@media (prefers-color-scheme: light) { :root { filter: none; } }
@media (prefers-color-scheme: dark) { :root { filter: none; } }
</style></svg>